<?xml version="1.0" encoding="utf-8"?>
<!-- Generator: Avocode 2.4.2-d618096 - http://avocode.com -->
<svg height="22" width="100" xmlns:xlink="http://www.w3.org/1999/xlink" xmlns="http://www.w3.org/2000/svg" viewBox="0 0 100 22">
    <path fill="#f5f6fa" fill-rule="evenodd" d="M 99.82 17.97 C 99.94 18.57 100 19.17 100 19.78 C 100 20.43 99.94 21.05 99.82 21.65 C 99.82 21.65 87.83 21.65 87.83 21.65 C 87.83 21.65 87.83 0.35 87.83 0.35 C 87.83 0.35 99.62 0.35 99.62 0.35 C 99.74 0.95 99.79 1.55 99.79 2.16 C 99.79 2.81 99.74 3.44 99.62 4.03 C 99.62 4.03 92.05 4.03 92.05 4.03 C 92.05 4.03 92.05 8.65 92.05 8.65 C 92.05 8.65 98.06 8.65 98.06 8.65 C 98.18 9.28 98.23 9.89 98.23 10.48 C 98.23 11.11 98.18 11.74 98.06 12.35 C 98.06 12.35 92.05 12.35 92.05 12.35 C 92.05 12.35 92.05 17.97 92.05 17.97 C 92.05 17.97 99.82 17.97 99.82 17.97 Z M 81.71 21.81 C 80.62 21.94 79.67 22 78.86 22 C 77.17 22 75.68 21.73 74.41 21.19 C 73.14 20.64 72.08 19.88 71.23 18.91 C 70.38 17.93 69.75 16.77 69.33 15.43 C 68.9 14.09 68.69 12.62 68.69 11.05 C 68.69 9.47 68.91 8 69.35 6.65 C 69.8 5.3 70.44 4.13 71.28 3.14 C 72.11 2.15 73.14 1.38 74.37 0.83 C 75.59 0.28 76.99 0 78.55 0 C 79.47 0 80.33 0.06 81.13 0.18 C 81.93 0.3 82.77 0.54 83.63 0.92 C 83.6 1.51 83.48 2.09 83.29 2.65 C 83.09 3.21 82.88 3.78 82.65 4.35 C 81.98 4.12 81.38 3.95 80.86 3.85 C 80.34 3.75 79.72 3.7 79.01 3.7 C 77.16 3.7 75.74 4.32 74.74 5.55 C 73.75 6.79 73.26 8.62 73.26 11.05 C 73.26 13.47 73.75 15.28 74.73 16.48 C 75.71 17.67 77.16 18.27 79.07 18.27 C 79.39 18.27 79.69 18.25 79.95 18.21 C 80.21 18.17 80.44 18.13 80.66 18.09 C 80.66 18.09 80.66 10.6 80.66 10.6 C 81.37 10.48 82.06 10.42 82.74 10.42 C 83.41 10.42 84.12 10.48 84.85 10.6 C 84.85 10.6 84.85 21.05 84.85 21.05 C 83.85 21.43 82.8 21.68 81.71 21.81 Z M 54.99 22 C 54 22 53.1 21.97 52.27 21.9 C 51.44 21.83 50.62 21.74 49.81 21.65 C 49.81 21.65 49.81 0.35 49.81 0.35 C 50.62 0.26 51.47 0.17 52.36 0.1 C 53.24 0.03 54.22 0 55.3 0 C 58.95 0 61.72 0.93 63.61 2.78 C 65.51 4.64 66.46 7.42 66.46 11.13 C 66.46 14.87 65.5 17.61 63.57 19.37 C 61.64 21.12 58.78 22 54.99 22 Z M 61.49 7.49 C 61.16 6.54 60.72 5.79 60.16 5.24 C 59.6 4.69 58.96 4.3 58.24 4.07 C 57.52 3.84 56.75 3.73 55.94 3.73 C 55.67 3.73 55.36 3.74 55 3.74 C 54.64 3.76 54.33 3.78 54.06 3.82 C 54.06 3.82 54.06 18.21 54.06 18.21 C 54.23 18.23 54.46 18.25 54.72 18.27 C 55 18.29 55.32 18.3 55.71 18.3 C 56.59 18.3 57.42 18.2 58.18 17.99 C 58.94 17.78 59.6 17.4 60.16 16.85 C 60.72 16.3 61.16 15.56 61.49 14.63 C 61.82 13.7 61.98 12.51 61.98 11.05 C 61.98 9.62 61.82 8.44 61.49 7.49 Z M 42.15 21.65 C 42.15 21.65 42.15 0.35 42.15 0.35 C 42.86 0.24 43.57 0.18 44.26 0.18 C 44.96 0.18 45.67 0.24 46.4 0.35 C 46.4 0.35 46.4 21.65 46.4 21.65 C 45.67 21.76 44.97 21.82 44.29 21.82 C 43.58 21.82 42.86 21.76 42.15 21.65 Z M 39.35 21.73 C 38.92 21.77 38.49 21.79 38.05 21.79 C 37.31 21.79 36.59 21.73 35.88 21.62 C 35.88 21.62 30.44 11.73 30.44 11.73 C 30.44 11.73 31.14 11.37 31.14 11.37 C 31.41 11.23 31.73 11.06 32.12 10.84 C 32.5 10.62 32.88 10.35 33.23 10.02 C 33.59 9.7 33.89 9.3 34.14 8.84 C 34.39 8.38 34.52 7.83 34.52 7.2 C 34.52 5.95 34.17 5.04 33.48 4.46 C 32.78 3.87 31.89 3.58 30.79 3.58 C 30.37 3.58 29.98 3.61 29.63 3.67 C 29.63 3.67 29.63 21.65 29.63 21.65 C 29.29 21.68 28.94 21.72 28.59 21.75 C 28.25 21.78 27.91 21.79 27.58 21.79 C 27.25 21.79 26.91 21.78 26.54 21.76 C 26.17 21.74 25.8 21.7 25.41 21.65 C 25.41 21.65 25.41 0.35 25.41 0.35 C 26.26 0.26 27.06 0.17 27.8 0.1 C 28.54 0.03 29.36 0 30.27 0 C 31.33 0 32.38 0.1 33.41 0.3 C 34.44 0.49 35.37 0.84 36.2 1.35 C 37.02 1.85 37.69 2.53 38.21 3.39 C 38.72 4.25 38.97 5.34 38.97 6.66 C 38.97 7.45 38.88 8.15 38.68 8.75 C 38.49 9.35 38.24 9.88 37.94 10.33 C 37.65 10.79 37.32 11.18 36.98 11.5 C 36.63 11.83 36.3 12.09 35.99 12.29 C 35.99 12.29 35.5 12.61 35.5 12.61 C 35.5 12.61 40.56 21.62 40.56 21.62 C 40.17 21.66 39.77 21.7 39.35 21.73 Z M 20.17 20.76 C 19.37 21.23 18.44 21.56 17.39 21.73 C 16.34 21.91 15.24 22 14.08 22 C 13.19 22 12.32 21.98 11.45 21.93 C 10.58 21.88 9.6 21.78 8.5 21.65 C 8.5 21.65 8.5 0.33 8.5 0.33 C 9.12 0.23 9.83 0.15 10.64 0.09 C 11.45 0.03 12.46 0 13.68 0 C 14.74 0 15.74 0.09 16.68 0.27 C 17.63 0.44 18.45 0.74 19.16 1.17 C 19.86 1.59 20.41 2.16 20.82 2.87 C 21.22 3.58 21.42 4.47 21.42 5.54 C 21.42 6.17 21.33 6.76 21.15 7.3 C 20.97 7.84 20.72 8.32 20.41 8.72 C 20.1 9.13 19.76 9.46 19.37 9.73 C 18.99 9.99 18.59 10.16 18.19 10.22 C 18.63 10.27 19.12 10.41 19.66 10.63 C 20.2 10.85 20.7 11.17 21.16 11.59 C 21.63 12.02 22.01 12.56 22.32 13.24 C 22.63 13.91 22.78 14.72 22.78 15.66 C 22.78 16.95 22.55 18 22.08 18.82 C 21.6 19.64 20.97 20.28 20.17 20.76 Z M 17.07 4.58 C 16.87 4.21 16.61 3.92 16.29 3.72 C 15.97 3.51 15.62 3.37 15.22 3.3 C 14.83 3.23 14.44 3.2 14.05 3.2 C 13.51 3.2 13.06 3.23 12.69 3.29 C 12.69 3.29 12.69 8.97 12.69 8.97 C 12.69 8.97 13.97 8.97 13.97 8.97 C 14.45 8.97 14.89 8.93 15.31 8.84 C 15.72 8.75 16.08 8.59 16.39 8.37 C 16.7 8.14 16.94 7.83 17.12 7.45 C 17.29 7.06 17.38 6.57 17.38 5.98 C 17.38 5.41 17.28 4.94 17.07 4.58 Z M 18.16 13.87 C 17.97 13.47 17.69 13.14 17.33 12.9 C 16.98 12.65 16.55 12.48 16.06 12.38 C 15.57 12.28 15.03 12.23 14.43 12.23 C 14.43 12.23 12.69 12.23 12.69 12.23 C 12.69 12.23 12.69 18.39 12.69 18.39 C 12.96 18.43 13.28 18.46 13.63 18.48 C 13.99 18.5 14.31 18.51 14.6 18.51 C 15.01 18.51 15.43 18.47 15.87 18.39 C 16.32 18.31 16.73 18.16 17.12 17.93 C 17.5 17.7 17.82 17.39 18.07 16.98 C 18.32 16.58 18.45 16.05 18.45 15.4 C 18.45 14.79 18.35 14.28 18.16 13.87 Z M 4.76 0.71 C 4.76 0.71 4.76 6.04 4.76 6.04 C 4.76 6.04 4.76 11.95 4.76 11.95 C 4.76 11.95 0 11.95 0 11.95 C 0 11.95 4.76 0.71 4.76 0.71 Z M 0 4.14 C 0 4.14 4.76 0.71 4.76 0.71 C 4.76 0.71 0 8.98 0 8.98 C 0 8.98 0 4.14 0 4.14 Z" />
</svg>